<svg xmlns="http://www.w3.org/2000/svg" viewBox="0 0 250 100"><defs><style>.a{fill:#4c070a;fill-rule:evenodd;opacity:0.35;}.b{fill:#fff;}</style></defs><title>logo-clear</title><path class="a" d="M27.66,0C10.25,17.33-3.82,55.58.93,74.34,6.49,95.49,23.38,102.9,43.85,99c21-4.42,29.25-18.89,24.75-39-4.17-18.59-28-21.21-28.88-60ZM11.47,40.72c.44-.81.86-.68.58.34l-2.93,9C-2.3,91.42,40.25,107.11,62.05,75.93c.71-.72,1.32-.37.65.51C48.25,98.77,29.29,100,16.37,91.32,2.59,82,.38,63,11.47,40.72ZM34.29,7.63c3.25,28.91,16.17,30.76,24.25,46.14,3.8,8.17,3,14-.78,18.27-.65.7-1.16.42-1.18-.1,2.62-26.08-21.35-27-22.64-63.69,0-.28,0-2.45.34-.61ZM24.73,17.72c1.5-1.87,1.39-2,.49,1C10.68,54.58,37.35,60.63,39.93,69.06c2.91,9.5-2.94,15.77-8.6,16.71C.64,89.29,12.29,36.64,24.73,17.72Z"/><path class="b" d="M73.77,18.57a3.3,3.3,0,1,1,6.6,0v25a3.3,3.3,0,1,1-6.6,0V35.9H68.4c-6.91,0-12.23-4.27-12.23-10.56V18.57a3.3,3.3,0,1,1,6.6,0V25c0,3,2.68,4.84,6.07,4.84h4.93Z"/><path class="b" d="M101.84,47a3.2,3.2,0,0,1-3.17-3.52V34.14h-.09l-8.67,11.4A3.14,3.14,0,0,1,87.32,47a3.2,3.2,0,0,1-3.17-3.52V26.57a3.19,3.19,0,1,1,6.34,0v9.15h.09L98.67,25a4.24,4.24,0,0,1,3.17-1.94A3.2,3.2,0,0,1,105,26.57v16.9A3.2,3.2,0,0,1,101.84,47Z"/><path class="b" d="M124.37,29.83c-1.58,0-3-1.23-5-1.23-3.61,0-5.32,3.21-5.32,6.47s1.89,6.38,5.32,6.38c1.58,0,4-1.32,4.71-1.32a2.78,2.78,0,0,1,2.73,2.77c0,3.26-5.46,4.36-7.75,4.36-6.82,0-11.35-5.59-11.35-12.19,0-6.42,4.66-12.28,11.35-12.28,2.51,0,7.75.92,7.75,4C126.79,28.11,125.87,29.83,124.37,29.83Z"/><path class="b" d="M134.4,28.86H130a2.57,2.57,0,0,1-2.77-2.77A2.71,2.71,0,0,1,130,23.32h15.23c1.63,0,3,.75,3,2.77s-1.41,2.77-3,2.77h-4.44V43.47a3.19,3.19,0,1,1-6.34,0Z"/><path class="b" d="M171.8,35.07c0,6.6-4.53,12.19-11.35,12.19s-11.35-5.59-11.35-12.19c0-6.42,4.67-12.28,11.35-12.28S171.8,28.64,171.8,35.07Zm-16.37,0c0,3,1.58,6.38,5,6.38s5-3.34,5-6.38-1.54-6.47-5-6.47S155.43,32,155.43,35.07Z"/><path class="b" d="M204.05,62.27a3.87,3.87,0,0,1-4-4.21V53.53H177.1v4.54a4.05,4.05,0,1,1-8.1,0V50.61a3.93,3.93,0,0,1,4-4.21c1.62,0,3.83-11.56,3.83-18.58V19.29a3.9,3.9,0,0,1,4-4.21h18.25a3.9,3.9,0,0,1,4,4.21V46.4h.81a3.9,3.9,0,0,1,4.05,4.21v7.45A3.87,3.87,0,0,1,204.05,62.27Zm-8.91-40.07H185v5.08c0,6.43-1.4,15.28-3.13,19.12h13.28Z"/><path class="b" d="M219.71,18.91a6.35,6.35,0,0,1,5.78-4.48c2.86,0,4.86,1.89,5.78,4.48l10.58,29.38a6.29,6.29,0,0,1,.43,2,3.6,3.6,0,0,1-3.73,3.56A3.78,3.78,0,0,1,234.61,51L233,46H218l-1.62,5a3.75,3.75,0,0,1-3.89,2.86,3.88,3.88,0,0,1-4-3.78,4.63,4.63,0,0,1,.38-1.78Zm.59,19.6h10.26l-5-15.66h-.11Z"/><path class="b" d="M80.39,83.16a.71.71,0,1,1-1.41,0V73.07a.71.71,0,1,1,1.41,0v4.16l4.88-4.47a1.22,1.22,0,0,1,.77-.45.58.58,0,0,1,.61.61.72.72,0,0,1-.29.64l-4.67,4.21,5.11,4.93a.72.72,0,0,1,.29.58.66.66,0,0,1-.69.62.89.89,0,0,1-.69-.3l-5.31-5.22Z"/><path class="b" d="M94.22,83.91a.68.68,0,0,1-.7-.75V76.51H90.79V79.3c0,3.14-1.33,4.56-2.78,4.56-.42,0-.69-.19-.69-.62A.6.6,0,0,1,88,82.6c.64,0,1.38-1,1.38-3.3V76.07a.68.68,0,0,1,.7-.77h4.13a.68.68,0,0,1,.7.75v7.11A.68.68,0,0,1,94.22,83.91Z"/><path class="b" d="M102.83,83.91a.68.68,0,0,1-.7-.75V77.83h0l-3.91,5.6c-.19.27-.27.48-.7.48a.68.68,0,0,1-.7-.75V76a.71.71,0,1,1,1.41,0v5.31h0l3.91-5.6c.18-.26.27-.46.7-.46a.68.68,0,0,1,.7.75v7.2A.68.68,0,0,1,102.83,83.91Z"/><path class="b" d="M106.79,83.16a.71.71,0,1,1-1.41,0V76a.71.71,0,1,1,1.41,0v2.74h3.94V76a.71.71,0,1,1,1.41,0v7.2a.71.71,0,1,1-1.41,0V79.91h-3.94Z"/><path class="b" d="M120,83.91a.68.68,0,0,1-.7-.75V77.83h0l-3.91,5.6c-.19.27-.27.48-.7.48a.68.68,0,0,1-.7-.75V76a.71.71,0,1,1,1.41,0v5.31h0l3.91-5.6c.18-.26.27-.46.7-.46a.68.68,0,0,1,.7.75v7.2A.68.68,0,0,1,120,83.91Z"/><path class="b" d="M124,83.16a.71.71,0,1,1-1.41,0V76A.71.71,0,1,1,124,76v2.74h3.94V76a.71.71,0,1,1,1.41,0v7.2a.71.71,0,1,1-1.41,0V79.91H124Z"/><path class="b" d="M132.36,75.3h3.84c.46,0,.7.22.7.61s-.24.61-.7.61h-3.14v6.64a.71.71,0,1,1-1.41,0V76A.69.69,0,0,1,132.36,75.3Z"/><path class="b" d="M141,75.2c2.4,0,3.75,2.1,3.75,4.35s-1.34,4.35-3.75,4.35-3.75-2.1-3.75-4.35S138.61,75.2,141,75.2Zm0,7.49c1.73,0,2.34-1.7,2.34-3.14s-.61-3.14-2.34-3.14-2.34,1.7-2.34,3.14S139.29,82.69,141,82.69Z"/><path class="b" d="M150.17,83.81H147a.68.68,0,0,1-.7-.75V76a.68.68,0,0,1,.7-.75h3a2.14,2.14,0,0,1,2.31,2,1.88,1.88,0,0,1-1.18,1.87v0A2.08,2.08,0,0,1,153,81.33,2.52,2.52,0,0,1,150.17,83.81Zm-.42-7.33h-2.1v2.24h2.08a1.1,1.1,0,0,0,1.15-1.15A1,1,0,0,0,149.75,76.48Zm.32,3.39h-2.42v2.75H150a1.39,1.39,0,0,0,1.52-1.38A1.35,1.35,0,0,0,150.07,79.88Z"/><path class="b" d="M160.1,83.91a.68.68,0,0,1-.7-.75v-.34l0,0A2.91,2.91,0,0,1,157,83.91c-1.54,0-2.95-.75-2.95-2.5,0-2.66,3-2.87,5.15-2.87h.19V77.49c0-.72-.59-1.07-1.5-1.07-1.34,0-1.58.86-2.19.86a.57.57,0,0,1-.64-.58c0-.88,1.66-1.5,2.83-1.5,1.86,0,2.9.83,2.9,2.4v5.55A.68.68,0,0,1,160.1,83.91Zm-.69-4.27h-.3c-1.79,0-3.63,0-3.63,1.78,0,.93.86,1.28,1.79,1.28a2.06,2.06,0,0,0,2.15-2.26Z"/><path class="b" d="M167.78,83.91a.68.68,0,0,1-.7-.75V80H167l-3.55,3.59a.85.85,0,0,1-.61.29.61.61,0,0,1-.66-.56.66.66,0,0,1,.24-.54L165.13,80l-.45,0a2.19,2.19,0,0,1-2.32-2.42A2.45,2.45,0,0,1,165,75.3h2.82a.68.68,0,0,1,.7.75v7.11A.68.68,0,0,1,167.78,83.91Zm-.7-7.44h-2a1.21,1.21,0,0,0-1.33,1.15c0,.9.4,1.28,1.31,1.28h2Z"/><path class="b" d="M180.31,83.91a1.25,1.25,0,0,1-.82-.43l-3.75-3.36v3a.71.71,0,1,1-1.41,0V76a.71.71,0,1,1,1.41,0v2.63l3.38-2.95a1.42,1.42,0,0,1,.8-.43.58.58,0,0,1,.59.62c0,.21-.08.37-.35.61l-3.3,2.88,3.7,3.31a1,1,0,0,1,.34.72A.58.58,0,0,1,180.31,83.91Z"/><path class="b" d="M185.19,75.2c2.4,0,3.75,2.1,3.75,4.35s-1.34,4.35-3.75,4.35-3.75-2.1-3.75-4.35S182.79,75.2,185.19,75.2Zm0,7.49c1.73,0,2.34-1.7,2.34-3.14s-.61-3.14-2.34-3.14-2.34,1.7-2.34,3.14S183.46,82.69,185.19,82.69Z"/><path class="b" d="M199.42,83.91a.8.8,0,0,1-.67-.72l-1.12-5.65h0L195.9,83c-.18.56-.32.93-.83.93s-.66-.37-.83-.93l-1.7-5.44h0l-1.12,5.65a.82.82,0,0,1-.77.72.6.6,0,0,1-.66-.62,2.6,2.6,0,0,1,.08-.54l1.55-6.8a.82.82,0,0,1,.82-.74c.38,0,.69.22.85.74L195,81.68h0l1.79-5.75c.16-.51.46-.74.85-.74a.83.83,0,0,1,.82.74l1.55,6.8a3,3,0,0,1,.08.59C200.17,83.6,199.9,83.91,199.42,83.91Z"/><path class="b" d="M207.61,83.91a.68.68,0,0,1-.7-.75V76.51H203v6.64a.71.71,0,1,1-1.41,0V76a.68.68,0,0,1,.7-.75h5.35a.68.68,0,0,1,.7.75v7.11A.68.68,0,0,1,207.61,83.91Z"/><path class="b" d="M215.86,83.91a.68.68,0,0,1-.7-.75v-.34l0,0a2.91,2.91,0,0,1-2.35,1.12c-1.54,0-2.95-.75-2.95-2.5,0-2.66,3-2.87,5.15-2.87h.19V77.49c0-.72-.59-1.07-1.5-1.07-1.34,0-1.58.86-2.19.86a.57.57,0,0,1-.64-.58c0-.88,1.66-1.5,2.83-1.5,1.86,0,2.9.83,2.9,2.4v5.55A.68.68,0,0,1,215.86,83.91Zm-.69-4.27h-.3c-1.79,0-3.63,0-3.63,1.78,0,.93.86,1.28,1.79,1.28a2.06,2.06,0,0,0,2.15-2.26Z"/><path class="b" d="M219.83,83.16a.71.71,0,1,1-1.41,0V76a.71.71,0,1,1,1.41,0v2.74h3.94V76a.71.71,0,1,1,1.41,0v7.2a.71.71,0,1,1-1.41,0V79.91h-3.94Z"/><path class="b" d="M233.08,83.91a.68.68,0,0,1-.7-.75V77.83h0l-3.91,5.6c-.19.27-.27.48-.7.48a.68.68,0,0,1-.7-.75V76a.71.71,0,1,1,1.41,0v5.31h0l3.91-5.6c.18-.26.27-.46.7-.46a.68.68,0,0,1,.7.75v7.2A.68.68,0,0,1,233.08,83.91Z"/><path class="b" d="M240.76,83.91a.68.68,0,0,1-.7-.75V80h-.11l-3.55,3.59a.85.85,0,0,1-.61.29.61.61,0,0,1-.66-.56.66.66,0,0,1,.24-.54L238.1,80l-.45,0a2.19,2.19,0,0,1-2.32-2.42,2.45,2.45,0,0,1,2.61-2.31h2.82a.68.68,0,0,1,.7.75v7.11A.68.68,0,0,1,240.76,83.91Zm-.7-7.44h-2a1.21,1.21,0,0,0-1.33,1.15c0,.9.4,1.28,1.31,1.28h2Z"/></svg>