<svg xmlns="http://www.w3.org/2000/svg" viewBox="0 0 250 100"><defs><style>.a{fill:#4c070a;opacity:0.35;}.a,.c{fill-rule:evenodd;}.b,.c{fill:#fff;}</style></defs><title>logo-clear-drop</title><path class="a" d="M27.66,0C10.25,17.33-3.82,55.58.93,74.34,6.49,95.49,23.38,102.9,43.85,99c21-4.42,29.25-18.89,24.75-39-4.17-18.59-28-21.21-28.88-60ZM11.47,40.72c.44-.81.86-.68.58.34l-2.93,9C-2.3,91.42,40.25,107.11,62.05,75.93c.71-.72,1.32-.37.65.51C48.25,98.77,29.29,100,16.37,91.32,2.59,82,.38,63,11.47,40.72ZM34.29,7.63c3.25,28.91,16.17,30.76,24.25,46.14,3.8,8.17,3,14-.78,18.27-.65.7-1.16.42-1.18-.1,2.62-26.08-21.35-27-22.64-63.69,0-.28,0-2.45.34-.61ZM24.73,17.72c1.5-1.87,1.39-2,.49,1C10.68,54.58,37.35,60.63,39.93,69.06c2.91,9.5-2.94,15.77-8.6,16.71C.64,89.29,12.29,36.64,24.73,17.72Z"/><path class="b" d="M75,18.57a3.3,3.3,0,1,1,6.6,0v25a3.3,3.3,0,1,1-6.6,0V35.9H69.6c-6.91,0-12.23-4.27-12.23-10.56V18.57a3.3,3.3,0,1,1,6.6,0V25c0,3,2.68,4.84,6.07,4.84H75Z"/><path class="b" d="M103,47a3.2,3.2,0,0,1-3.17-3.52V34.14h-.09l-8.67,11.4A3.14,3.14,0,0,1,88.52,47a3.2,3.2,0,0,1-3.17-3.52V26.57a3.19,3.19,0,1,1,6.34,0v9.15h.09L99.87,25A4.24,4.24,0,0,1,103,23.05a3.2,3.2,0,0,1,3.17,3.52v16.9A3.2,3.2,0,0,1,103,47Z"/><path class="b" d="M125.57,29.83c-1.58,0-3-1.23-5-1.23-3.61,0-5.32,3.21-5.32,6.47s1.89,6.38,5.32,6.38c1.58,0,4-1.32,4.71-1.32A2.78,2.78,0,0,1,128,42.9c0,3.26-5.46,4.36-7.75,4.36-6.82,0-11.35-5.59-11.35-12.19,0-6.42,4.66-12.28,11.35-12.28,2.51,0,7.75.92,7.75,4C128,28.11,127.06,29.83,125.57,29.83Z"/><path class="b" d="M135.6,28.86h-4.44a2.57,2.57,0,0,1-2.77-2.77,2.71,2.71,0,0,1,2.77-2.77h15.23c1.63,0,3,.75,3,2.77s-1.41,2.77-3,2.77h-4.44V43.47a3.19,3.19,0,1,1-6.34,0Z"/><path class="b" d="M173,35.07c0,6.6-4.53,12.19-11.35,12.19s-11.35-5.59-11.35-12.19c0-6.42,4.67-12.28,11.35-12.28S173,28.64,173,35.07Zm-16.37,0c0,3,1.58,6.38,5,6.38s5-3.34,5-6.38-1.54-6.47-5-6.47S156.63,32,156.63,35.07Z"/><path class="b" d="M205.54,62.27a3.87,3.87,0,0,1-4-4.21V53.53h-22.9v4.54a4.05,4.05,0,1,1-8.1,0V50.61a3.93,3.93,0,0,1,4-4.21c1.62,0,3.83-11.56,3.83-18.58V19.29a3.9,3.9,0,0,1,4-4.21h18.25a3.9,3.9,0,0,1,4,4.21V46.4h.81a3.9,3.9,0,0,1,4.05,4.21v7.45A3.87,3.87,0,0,1,205.54,62.27Zm-8.91-40.07H186.48v5.08c0,6.43-1.4,15.28-3.13,19.12h13.28Z"/><path class="b" d="M221.2,18.91A6.35,6.35,0,0,1,227,14.43c2.86,0,4.86,1.89,5.78,4.48l10.58,29.38a6.29,6.29,0,0,1,.43,2A3.6,3.6,0,0,1,240,53.85,3.78,3.78,0,0,1,236.1,51L234.48,46h-15l-1.62,5A3.75,3.75,0,0,1,214,53.85a3.88,3.88,0,0,1-4-3.78,4.63,4.63,0,0,1,.38-1.78Zm.59,19.6h10.26l-5-15.66h-.11Z"/><path class="b" d="M74.77,73.5A1.16,1.16,0,0,1,76,72.32a1.13,1.13,0,0,1,1.2,1.18V77l3.94-4.19a1.26,1.26,0,0,1,.93-.45,1.16,1.16,0,0,1,1.18,1.15c0,.42-.26.75-.78,1.28l-3,3,3.7,3.86a1.81,1.81,0,0,1,.67,1.22,1.12,1.12,0,0,1-1.25,1.1c-.46,0-.77-.27-1.22-.75l-4.15-4.48v4.08A1.15,1.15,0,0,1,76,83.91a1.12,1.12,0,0,1-1.2-1.15Z"/><path class="b" d="M86.66,75.3h4.26a1.16,1.16,0,0,1,1.15,1.28v6.05a1.16,1.16,0,1,1-2.3,0V77.31h-2V79.7c0,2.8-1.23,4.21-2.95,4.21a1,1,0,0,1-1-1,1,1,0,0,1,.7-.94c.46-.14.94-.61.94-2V76.58A1.16,1.16,0,0,1,86.66,75.3Z"/><path class="b" d="M99.82,83.91a1.16,1.16,0,0,1-1.15-1.28V79.24h0l-3.15,4.15a1.14,1.14,0,0,1-.94.53,1.16,1.16,0,0,1-1.15-1.28V76.48a1.16,1.16,0,1,1,2.31,0v3.33h0l2.95-3.91a1.54,1.54,0,0,1,1.15-.7A1.16,1.16,0,0,1,101,76.48v6.15A1.16,1.16,0,0,1,99.82,83.91Z"/><path class="b" d="M108.71,83.91a1.16,1.16,0,0,1-1.15-1.28V80.39h-3v2.24a1.16,1.16,0,1,1-2.31,0V76.48a1.16,1.16,0,1,1,2.31,0v1.89h3V76.48a1.16,1.16,0,1,1,2.3,0v6.15A1.16,1.16,0,0,1,108.71,83.91Z"/><path class="b" d="M117.61,83.91a1.16,1.16,0,0,1-1.15-1.28V79.24h0l-3.15,4.15a1.14,1.14,0,0,1-.94.53,1.16,1.16,0,0,1-1.15-1.28V76.48a1.16,1.16,0,1,1,2.31,0v3.33h0l2.95-3.91a1.54,1.54,0,0,1,1.15-.7,1.16,1.16,0,0,1,1.15,1.28v6.15A1.16,1.16,0,0,1,117.61,83.91Z"/><path class="b" d="M126.51,83.91a1.16,1.16,0,0,1-1.15-1.28V80.39h-3v2.24a1.16,1.16,0,1,1-2.31,0V76.48a1.16,1.16,0,1,1,2.31,0v1.89h3V76.48a1.16,1.16,0,1,1,2.3,0v6.15A1.16,1.16,0,0,1,126.51,83.91Z"/><path class="b" d="M128.89,76.31a1,1,0,0,1,1-1h3.87a1,1,0,1,1,0,2h-2.58v5.31a1.16,1.16,0,1,1-2.31,0Z"/><path class="b" d="M143.45,79.57a4.14,4.14,0,1,1-8.26,0,4.14,4.14,0,1,1,8.26,0Zm-6,0c0,1.1.58,2.32,1.82,2.32s1.82-1.22,1.82-2.32-.56-2.35-1.82-2.35S137.5,78.47,137.5,79.57Z"/><path class="b" d="M144.42,76.35a1.09,1.09,0,0,1,1.1-1.06h3.09a2.1,2.1,0,0,1,2.24,2.11,1.74,1.74,0,0,1-1.1,1.75v0a2.08,2.08,0,0,1,1.82,2,2.49,2.49,0,0,1-2.79,2.59h-3.27a1.1,1.1,0,0,1-1.1-1.07Zm2.27,2.32h.93a.88.88,0,0,0,1-.94.86.86,0,0,0-1-.85h-.93Zm0,3.55h1.41a1,1,0,0,0,1.12-1c0-.56-.43-.94-1.26-.94H146.7Z"/><path class="b" d="M155.66,84c-1.86,0-3.19-.94-3.19-2.75,0-2.66,3.12-3,5.25-3v-.62c0-.45-.37-.61-1-.61-1.34,0-1.58.78-2.19.78a.94.94,0,0,1-1-1c0-.93,1.84-1.73,3.2-1.73,2.13,0,3.31.91,3.31,2.58v5a1.15,1.15,0,0,1-1.12,1.23,1,1,0,0,1-1.09-.85A2.71,2.71,0,0,1,155.66,84Zm.42-1.92a1.54,1.54,0,0,0,1.74-1.73V80c-1.39,0-3.14-.14-3.14,1.26C154.68,81.88,155.38,82.08,156.07,82.08Z"/><path class="b" d="M161.14,78c0-1.87,1.14-2.71,3-2.71h2.38a1.16,1.16,0,0,1,1.15,1.28v6.05a1.16,1.16,0,1,1-2.31,0v-2h0l-2.45,3A1.1,1.1,0,0,1,161,82.8a.89.89,0,0,1,.29-.64l1.82-2A2.27,2.27,0,0,1,161.14,78Zm4.21-1.06h-.78a1.06,1.06,0,1,0,0,2.11h.78Z"/><path class="b" d="M173.22,76.48a1.16,1.16,0,1,1,2.31,0v2.11l2.53-2.9a1.47,1.47,0,0,1,1-.5,1,1,0,0,1,1,1,1.34,1.34,0,0,1-.45.91l-2.15,2.19,2.8,2.71a1.06,1.06,0,0,1,.29.77,1.08,1.08,0,0,1-1.09,1.09c-.42,0-.75-.34-1.1-.7l-2.82-3h0v2.42a1.16,1.16,0,1,1-2.31,0Z"/><path class="b" d="M189.15,79.57a4.14,4.14,0,1,1-8.26,0,4.14,4.14,0,1,1,8.26,0Zm-6,0c0,1.1.58,2.32,1.82,2.32s1.82-1.22,1.82-2.32-.56-2.35-1.82-2.35S183.19,78.47,183.19,79.57Z"/><path class="b" d="M199.53,83.91a1.1,1.1,0,0,1-1.2-1l-.59-4.21h0l-1.3,4.42a1.29,1.29,0,0,1-2.4,0l-1.28-4.42h0l-.58,4.21a1.1,1.1,0,0,1-1.2,1,1.08,1.08,0,0,1-1.09-1.1,1.05,1.05,0,0,1,0-.22L191,76.21a1.44,1.44,0,0,1,1.44-1,1.53,1.53,0,0,1,1.44.94l1.33,4.21h0l1.31-4.21A1.53,1.53,0,0,1,198,75.2a1.45,1.45,0,0,1,1.46,1l1.15,6.37a1.05,1.05,0,0,1,0,.22A1.07,1.07,0,0,1,199.53,83.91Z"/><path class="b" d="M208.1,83.91A1.16,1.16,0,0,1,207,82.63V77.31h-3v5.31a1.16,1.16,0,1,1-2.31,0V76.58a1.16,1.16,0,0,1,1.15-1.28h5.28a1.16,1.16,0,0,1,1.15,1.28v6.05A1.16,1.16,0,0,1,208.1,83.91Z"/><path class="b" d="M213.46,84c-1.86,0-3.19-.94-3.19-2.75,0-2.66,3.12-3,5.25-3v-.62c0-.45-.37-.61-1-.61-1.34,0-1.58.78-2.19.78a.94.94,0,0,1-1-1c0-.93,1.84-1.73,3.2-1.73,2.13,0,3.31.91,3.31,2.58v5a1.15,1.15,0,0,1-1.12,1.23,1,1,0,0,1-1.09-.85A2.71,2.71,0,0,1,213.46,84Zm.42-1.92a1.54,1.54,0,0,0,1.74-1.73V80c-1.39,0-3.14-.14-3.14,1.26C212.49,81.88,213.19,82.08,213.88,82.08Z"/><path class="b" d="M225.5,83.91a1.16,1.16,0,0,1-1.15-1.28V80.39h-3v2.24a1.16,1.16,0,1,1-2.31,0V76.48a1.16,1.16,0,1,1,2.31,0v1.89h3V76.48a1.16,1.16,0,1,1,2.3,0v6.15A1.16,1.16,0,0,1,225.5,83.91Z"/><path class="b" d="M234.39,83.91a1.16,1.16,0,0,1-1.15-1.28V79.24h0l-3.15,4.15a1.14,1.14,0,0,1-.94.53A1.16,1.16,0,0,1,228,82.63V76.48a1.16,1.16,0,1,1,2.31,0v3.33h0l2.95-3.91a1.54,1.54,0,0,1,1.15-.7,1.16,1.16,0,0,1,1.15,1.28v6.15A1.16,1.16,0,0,1,234.39,83.91Z"/><path class="b" d="M236.74,78c0-1.87,1.14-2.71,3-2.71h2.38a1.16,1.16,0,0,1,1.15,1.28v6.05a1.16,1.16,0,1,1-2.31,0v-2h0l-2.45,3a1.1,1.1,0,0,1-1.92-.74.89.89,0,0,1,.29-.64l1.82-2A2.27,2.27,0,0,1,236.74,78ZM241,76.95h-.78a1.06,1.06,0,1,0,0,2.11H241Z"/><path class="c" d="M35.77.6c-19.1,8-37.84,53-32.84,73,4.88,18.87,19.74,25.48,37.75,22C59.15,91.7,66.41,78.79,62.45,60.88,58.6,43.46,35.64,41.76,37.09,1.81,37.14.59,36.43.39,35.77.6Zm-23.58,43c.39-.72.76-.6.51.3l-2.58,8C.09,88.87,37.52,102.87,56.69,75c.62-.64,1.16-.33.57.46-12.71,19.92-29.39,21-40.75,13.28C4.39,80.5,2.44,63.47,12.19,43.64ZM32.27,14.11C35.13,39.9,46.49,41.55,53.6,55.28c3.35,7.29,2.68,12.49-.69,16.3-.57.62-1,.38-1-.09C54.19,48.21,33.1,47.4,32,14.66c0-.25,0-2.19.3-.55Zm-8.41,9c1.32-1.67,1.23-1.75.43.93C11.5,56,35,61.4,37.23,68.92c2.56,8.48-2.58,14.07-7.57,14.91C2.67,87,12.91,40,23.86,23.11Z"/></svg>