<svg xmlns="http://www.w3.org/2000/svg" viewBox="0 0 250 100"><defs><style>.a{fill:#760b0e;stroke:#fff;}.a,.c{stroke-miterlimit:22.93;stroke-width:0.22px;}.b{fill:#4c070a;opacity:0.35;}.b,.c,.d{fill-rule:evenodd;}.c,.d{fill:#fff;}.c{stroke:#760b0e;}</style></defs><title>logo</title><rect class="a" x="0.01" width="249.99" height="99.98"/><path class="b" d="M27.37,0C10.15,17.33-3.78,55.57.92,74.34,6.42,95.48,23.13,102.9,43.39,99c20.78-4.42,28.94-18.89,24.49-39C63.75,41.46,40.16,38.83,39.3,0Zm-16,40.72c.44-.81.85-.68.57.34l-2.9,9C-2.27,91.41,39.83,107.11,61.4,75.92c.7-.72,1.31-.37.64.51C47.74,98.76,29,100,16.2,91.32,2.57,82,.38,62.95,11.34,40.72ZM33.93,7.63c3.21,28.91,16,30.76,24,46.14,3.76,8.17,3,14-.78,18.27-.64.7-1.14.42-1.16-.1,2.6-26.08-21.13-27-22.4-63.69,0-.28,0-2.45.34-.61ZM24.47,17.72c1.49-1.87,1.38-2,.49,1C10.56,54.58,37,60.63,39.51,69.05c2.88,9.5-2.91,15.77-8.51,16.71C.64,89.29,12.16,36.64,24.47,17.72Z"/><path class="c" d="M38.35,8.81C22.47,15.42,6.88,52.71,11,69.33,15.1,85,27.46,90.45,42.44,87.57c15.36-3.26,21.4-14,18.1-28.81C57.34,44.33,38.25,42.92,39.45,9.82c0-1-.55-1.18-1.1-1ZM18.74,44.47c.32-.6.63-.5.42.25L17,51.38C8.68,82,39.8,93.56,55.75,70.5c.52-.53,1-.28.47.38-10.57,16.51-24.44,17.44-33.89,11-10.08-6.86-11.7-21-3.59-37.41ZM35.44,20c2.38,21.37,11.83,22.74,17.74,34.11,2.78,6,2.23,10.35-.57,13.5-.47.52-.85.31-.86-.08,1.92-19.28-15.62-20-16.56-47.09,0-.21,0-1.81.25-.45Zm-7,7.46c1.1-1.38,1-1.45.36.77-10.64,26.48,8.88,31,10.77,37.19,2.13,7-2.15,11.66-6.29,12.35C10.83,80.38,19.34,41.45,28.45,27.47Z"/><path class="d" d="M206.32,55.29v-7.2A3.75,3.75,0,0,0,202.45,44h-.77V17.84a3.75,3.75,0,0,0-3.87-4.07H180.37a3.75,3.75,0,0,0-3.87,4.07v8.24c0,6.78-2.12,17.94-3.66,17.94A3.77,3.77,0,0,0,169,48.09v7.2a3.87,3.87,0,1,0,7.74,0V50.91h21.87v4.38a3.87,3.87,0,1,0,7.74,0ZM193.94,44H181.25c1.65-3.7,3-12.26,3-18.46v-4.9h9.7V44ZM207,45.85a4.51,4.51,0,0,0-.36,1.72,3.72,3.72,0,0,0,3.82,3.65,3.59,3.59,0,0,0,3.71-2.76l1.55-4.85H230.1l1.55,4.9a3.62,3.62,0,0,0,3.77,2.71A3.45,3.45,0,0,0,239,47.78a6.14,6.14,0,0,0-.41-1.93L228.45,17.48c-.88-2.5-2.79-4.33-5.52-4.33a6.08,6.08,0,0,0-5.52,4.33L207,45.85Zm15.84-24.56h.1l4.8,15.12H218Z"/><path class="d" d="M75.71,27.52H70.89c-3.31,0-5.93-1.78-5.93-4.78V16.39a3.23,3.23,0,1,0-6.45,0v6.69c0,6.21,5.2,10.43,12,10.43h5.24v7.56a3.23,3.23,0,1,0,6.45,0V16.39a3.23,3.23,0,1,0-6.45,0V27.52ZM106.23,41V24.3c0-2.09-1.29-3.48-3.09-3.48A4.13,4.13,0,0,0,100,22.74l-7.91,10.6H92v-9c0-2.09-1.29-3.48-3.09-3.48s-3.09,1.39-3.09,3.48V41c0,2.09,1.29,3.48,3.09,3.48A3.05,3.05,0,0,0,91.48,43l8.47-11.26H100V41c0,2.09,1.29,3.48,3.09,3.48s3.09-1.39,3.09-3.48ZM127.5,24.52c0-3-5.11-4-7.56-4-6.53,0-11.09,5.78-11.09,12.12,0,6.52,4.43,12,11.09,12,2.23,0,7.56-1.09,7.56-4.3a2.73,2.73,0,0,0-2.66-2.74c-.73,0-3.05,1.3-4.6,1.3-3.35,0-5.2-3.22-5.2-6.3s1.68-6.39,5.2-6.39c2,0,3.35,1.22,4.9,1.22s2.36-1.69,2.36-3ZM134.94,41c0,2.09,1.29,3.48,3.09,3.48s3.09-1.39,3.09-3.48V26.56h4.34c1.59,0,3-.78,3-2.74s-1.38-2.74-3-2.74H130.6a2.66,2.66,0,0,0-2.71,2.74,2.52,2.52,0,0,0,2.71,2.74h4.34V41Zm25.45-20.43c-6.53,0-11.09,5.78-11.09,12.12,0,6.52,4.43,12,11.09,12s11.09-5.52,11.09-12c0-6.35-4.56-12.12-11.09-12.12Zm0,5.74c3.4,0,4.9,3.39,4.9,6.39s-1.55,6.3-4.9,6.3-4.9-3.3-4.9-6.3S157,26.3,160.39,26.3Z"/><path class="d" d="M86.85,74.59l5,5a.83.83,0,0,0,.65.29.62.62,0,0,0,.65-.59.69.69,0,0,0-.27-.55L88.07,74l4.39-4a.69.69,0,0,0,.27-.61.55.55,0,0,0-.57-.58,1.14,1.14,0,0,0-.72.43L86.85,73.5v-4a.66.66,0,1,0-1.32,0v9.58a.66.66,0,1,0,1.32,0V74.59Zm13.66,4.53V72.37a.64.64,0,0,0-.66-.71H96a.64.64,0,0,0-.66.73v3.07c0,2.18-.69,3.13-1.29,3.13a.57.57,0,0,0-.65.61c0,.41.26.59.65.59,1.37,0,2.62-1.35,2.62-4.33V72.81h2.56v6.31a.66.66,0,1,0,1.32,0Zm8.09,0V72.28a.64.64,0,0,0-.66-.71c-.41,0-.5.2-.66.44l-3.67,5.32h0V72.28a.66.66,0,1,0-1.32,0v6.84a.64.64,0,0,0,.66.71c.41,0,.48-.2.66-.46l3.67-5.32h0v5.07a.66.66,0,1,0,1.32,0ZM111.67,76h3.7v3.09a.66.66,0,1,0,1.32,0V72.28a.66.66,0,1,0-1.32,0v2.6h-3.7v-2.6a.66.66,0,1,0-1.32,0v6.84a.66.66,0,1,0,1.32,0V76Zm13.12,3.09V72.28a.64.64,0,0,0-.66-.71c-.41,0-.5.2-.66.44l-3.67,5.32h0V72.28a.66.66,0,1,0-1.32,0v6.84a.64.64,0,0,0,.66.71c.41,0,.48-.2.66-.46l3.67-5.32h0v5.07a.66.66,0,1,0,1.32,0ZM127.86,76h3.7v3.09a.66.66,0,1,0,1.32,0V72.28a.66.66,0,1,0-1.32,0v2.6h-3.7v-2.6a.66.66,0,1,0-1.32,0v6.84a.66.66,0,1,0,1.32,0V76Zm7.19-3.67v6.75a.66.66,0,1,0,1.32,0V72.81h2.95c.44,0,.66-.21.66-.58s-.23-.58-.66-.58h-3.61a.66.66,0,0,0-.66.71Zm5.58,3.33c0,2.14,1.26,4.14,3.52,4.14s3.52-2,3.52-4.14-1.26-4.14-3.52-4.14-3.52,2-3.52,4.14Zm1.32,0c0-1.37.57-3,2.2-3s2.2,1.61,2.2,3-.57,3-2.2,3-2.2-1.61-2.2-3Zm13.42,1.69a2,2,0,0,0-1.73-2v0a1.79,1.79,0,0,0,1.11-1.78,2,2,0,0,0-2.17-1.93h-2.86a.64.64,0,0,0-.66.71V79a.64.64,0,0,0,.66.72h3a2.38,2.38,0,0,0,2.62-2.36Zm-1.94-3.57a1,1,0,0,1-1.08,1.1h-2V72.78h2a1,1,0,0,1,1.07,1Zm.62,3.5a1.31,1.31,0,0,1-1.43,1.31H150.4V76h2.27a1.28,1.28,0,0,1,1.38,1.31Zm8.71,1.81V73.85c0-1.49-1-2.28-2.72-2.28-1.1,0-2.66.59-2.66,1.43a.54.54,0,0,0,.6.55c.57,0,.8-.82,2.06-.82.86,0,1.41.34,1.41,1v1h-.18c-2,0-4.84.2-4.84,2.72,0,1.66,1.32,2.37,2.77,2.37a2.73,2.73,0,0,0,2.21-1.06l0,0v.32a.66.66,0,1,0,1.32,0Zm-1.31-2.59a1.94,1.94,0,0,1-2,2.14c-.87,0-1.68-.33-1.68-1.22,0-1.69,1.73-1.69,3.41-1.69h.29v.76ZM170,79.12V72.37a.64.64,0,0,0-.66-.71h-2.65a2.31,2.31,0,0,0-2.45,2.19,2.07,2.07,0,0,0,2.18,2.3h.42l-2.57,2.63a.63.63,0,0,0-.23.52.58.58,0,0,0,.62.53.79.79,0,0,0,.57-.27l3.34-3.41h.11v3a.66.66,0,1,0,1.32,0Zm-1.32-4h-1.88c-.86,0-1.23-.37-1.23-1.22a1.14,1.14,0,0,1,1.25-1.1h1.87v2.31Zm13,4.23a.91.91,0,0,0-.32-.68l-3.47-3.15,3.1-2.74c.26-.23.33-.38.33-.58a.55.55,0,0,0-.56-.59A1.33,1.33,0,0,0,180,72l-3.17,2.8V72.28a.66.66,0,1,0-1.32,0v6.84a.66.66,0,1,0,1.32,0V76.23l3.52,3.19a1.17,1.17,0,0,0,.77.41.55.55,0,0,0,.56-.53Zm.66-3.61c0,2.14,1.26,4.14,3.52,4.14s3.52-2,3.52-4.14-1.26-4.14-3.52-4.14-3.52,2-3.52,4.14Zm1.32,0c0-1.37.57-3,2.2-3s2.2,1.61,2.2,3-.57,3-2.2,3-2.2-1.61-2.2-3Zm16.28,3.59a2.87,2.87,0,0,0-.08-.56l-1.46-6.46a.79.79,0,0,0-.77-.7c-.36,0-.65.21-.8.7l-1.69,5.46h0l-1.68-5.46c-.15-.49-.44-.7-.8-.7a.77.77,0,0,0-.77.7l-1.46,6.46a2.52,2.52,0,0,0-.08.52.57.57,0,0,0,.62.59.77.77,0,0,0,.72-.68l1.05-5.37h0L194.34,79c.17.53.3.88.78.88s.62-.35.78-.88l1.59-5.17h0l1.05,5.37a.76.76,0,0,0,.63.68.63.63,0,0,0,.71-.55Zm7.66-.17V72.37a.64.64,0,0,0-.66-.71h-5a.64.64,0,0,0-.66.71v6.75a.66.66,0,1,0,1.32,0V72.81h3.7v6.31a.66.66,0,1,0,1.32,0Zm7.76,0V73.85c0-1.49-1-2.28-2.72-2.28-1.1,0-2.66.59-2.66,1.43a.54.54,0,0,0,.6.55c.57,0,.8-.82,2.06-.82.86,0,1.41.34,1.41,1v1h-.18c-2,0-4.84.2-4.84,2.72,0,1.66,1.32,2.37,2.77,2.37A2.73,2.73,0,0,0,214,78.77l0,0v.32a.66.66,0,1,0,1.32,0ZM214,76.54a1.94,1.94,0,0,1-2,2.14c-.87,0-1.68-.33-1.68-1.22,0-1.69,1.73-1.69,3.41-1.69H214v.76Zm4.38-.5h3.7v3.09a.66.66,0,1,0,1.32,0V72.28a.66.66,0,1,0-1.32,0v2.6h-3.7v-2.6a.66.66,0,1,0-1.32,0v6.84a.66.66,0,1,0,1.32,0V76Zm13.12,3.09V72.28a.64.64,0,0,0-.66-.71c-.41,0-.5.2-.66.44l-3.67,5.32h0V72.28a.66.66,0,1,0-1.32,0v6.84a.64.64,0,0,0,.66.71c.41,0,.48-.2.66-.46l3.67-5.32h0v5.07a.66.66,0,1,0,1.32,0Zm7.22,0V72.37a.64.64,0,0,0-.66-.71h-2.65A2.31,2.31,0,0,0,233,73.85a2.07,2.07,0,0,0,2.18,2.3h.42L233,78.79a.63.63,0,0,0-.23.52.58.58,0,0,0,.62.53.79.79,0,0,0,.57-.27l3.34-3.41h.11v3a.66.66,0,1,0,1.32,0Zm-1.32-4h-1.88c-.86,0-1.23-.37-1.23-1.22a1.14,1.14,0,0,1,1.25-1.1h1.87Z"/></svg>